<?xml version="1.0" encoding="utf-8"?>
<svg xmlns="http://www.w3.org/2000/svg" viewBox="378.5455 229.8493 42 42" width="42px" height="42px"><g id="icon" transform="matrix(0.95453012, 0, 0, 0.95456225, 14.14079173, -1.34873708)" style="transform-origin: -14.1408px 1.34876px;"><title>undefined--filled</title><path d="M 425.561 263.024 L 407.552 245.014 C 406.385 243.847 404.492 243.847 403.323 245.014 L 385.313 263.024 C 384.146 264.193 384.146 266.086 385.313 267.253 L 403.323 285.263 C 404.49 286.43 406.383 286.43 407.552 285.263 L 425.561 267.254 C 426.73 266.086 426.73 264.193 425.561 263.024 Z M 412.937 268.139 L 397.937 268.139 L 397.937 262.139 L 412.937 262.139 L 412.937 268.139 Z" style="stroke-width: 1; fill: rgb(150, 150, 150); transform-origin: -9.28561px 7.44215px;" transform="matrix(1, 0, 0, 1, 0, 0.000006)"/><rect id="inner-path" class="cls-1" x="393.437" y="256.139" width="10" height="4" style="fill: none; stroke-width: 1;"/><rect id="_Transparent_Rectangle_" data-name="&lt;Transparent Rectangle&gt;" class="cls-1" width="32" height="32" style="fill: none; stroke-width: 1;" x="382.437" y="242.139"/></g></svg>